{
    "accessors" : [
        {
            "bufferView" : 0,
            "componentType" : 5121,
            "count" : 564,
            "max" : [
                158
            ],
            "min" : [
                0
            ],
            "type" : "SCALAR"
        },
        {
            "bufferView" : 1,
            "componentType" : 5126,
            "count" : 159,
            "max" : [
                1.0,
                1.0,
                1.0
            ],
            "min" : [
                -1.0,
                -1.0,
                -1.0
            ],
            "type" : "VEC3"
        },
        {
            "bufferView" : 2,
            "componentType" : 5126,
            "count" : 159,
            "max" : [
                0.983062207698822,
                0.983062207698822,
                0.983062207698822
            ],
            "min" : [
                -0.983062207698822,
                -0.983062207698822,
                -0.983062207698822
            ],
            "type" : "VEC3"
        },
        {
            "bufferView" : 3,
            "componentType" : 5126,
            "count" : 159,
            "max" : [
                0.8662837147712708,
                0.8662847876548767,
                0.8662848472595215,
                1.0
            ],
            "min" : [
                -0.9925826191902161,
                -0.9925824999809265,
                -0.9925823211669922,
                1.0
            ],
            "type" : "VEC4"
        },
        {
            "bufferView" : 4,
            "componentType" : 5126,
            "count" : 159,
            "max" : [
                1.0,
                0.9999999998444942
            ],
            "min" : [
                2.0734106098707628e-10,
                5.960464477539063e-08
            ],
            "type" : "VEC2"
        }
    ],
    "asset" : {
        "generator" : "Khronos Blender glTF 2.0 exporter",
        "version" : "2.0"
    },
    "bufferViews" : [
        {
            "buffer" : 0,
            "byteLength" : 564,
            "byteOffset" : 0,
            "target" : 34963
        },
        {
            "buffer" : 0,
            "byteLength" : 1908,
            "byteOffset" : 564,
            "target" : 34962
        },
        {
            "buffer" : 0,
            "byteLength" : 1908,
            "byteOffset" : 2472,
            "target" : 34962
        },
        {
            "buffer" : 0,
            "byteLength" : 2544,
            "byteOffset" : 4380,
            "target" : 34962
        },
        {
            "buffer" : 0,
            "byteLength" : 1272,
            "byteOffset" : 6924,
            "target" : 34962
        }
    ],
    "buffers" : [
        {
            "byteLength" : 8196,
            "uri" : "cube.bin"
        }
    ],
    "images" : [
        {
            "name" : "diff",
            "uri" : "diff.png"
        },
        {
            "name" : " ORM ",
            "uri" : " ORM .png"
        }
    ],
    "materials" : [
        {
            "name" : "gltf",
            "occlusionTexture" : {
                "index" : 1,
                "strength" : 0.48148149251937866
            },
            "pbrMetallicRoughness" : {
                "baseColorTexture" : {
                    "index" : 0
                },
                "roughnessFactor" : 0.0
            }
        }
    ],
    "meshes" : [
        {
            "name" : "Cube.001",
            "primitives" : [
                {
                    "attributes" : {
                        "NORMAL" : 2,
                        "POSITION" : 1,
                        "TANGENT" : 3,
                        "TEXCOORD_0" : 4
                    },
                    "indices" : 0,
                    "material" : 0
                }
            ]
        }
    ],
    "nodes" : [
        {
            "mesh" : 0,
            "name" : "Cube.002"
        }
    ],
    "samplers" : [
        {}
    ],
    "scene" : 0,
    "scenes" : [
        {
            "name" : "Scene",
            "nodes" : [
                0
            ]
        }
    ],
    "textures" : [
        {
            "sampler" : 0,
            "source" : 0
        },
        {
            "sampler" : 0,
            "source" : 1
        }
    ]
}
